<?xml version="1.0" encoding="UTF-8"?>
<!DOCTYPE svg PUBLIC "-//W3C//DTD SVG 1.1//EN" "http://www.w3.org/Graphics/SVG/1.1/DTD/svg11.dtd">
<!-- Creator: CorelDRAW X7 -->
<svg xmlns="http://www.w3.org/2000/svg" xml:space="preserve" width="8.5in" height="11in" version="1.1" style="shape-rendering:geometricPrecision; text-rendering:geometricPrecision; image-rendering:optimizeQuality; fill-rule:evenodd; clip-rule:evenodd"
viewBox="0 0 8500 11000"
 xmlns:xlink="http://www.w3.org/1999/xlink">
 <defs>
  <style type="text/css">
   <![CDATA[
    .fil0 {fill:black}
   ]]>
  </style>
 </defs>
 <g id="Layer_x0020_1">
  <metadata id="CorelCorpID_0Corel-Layer"/>
  <g id="_788641024">
   <g>
    <g>
     <path class="fil0" d="M2455 5802c-258,-376 -295,-916 -91,-1343l97 -205c132,-278 64,-639 -153,-808 -217,-169 -500,-81 -632,196l-98 205c-413,868 -339,1966 185,2730 230,335 285,814 142,1220l-255 723c-105,296 -2,645 229,778 62,36 126,53 189,53 175,0 343,-129 420,-347l255 -723c291,-825 178,-1798 -288,-2479z"/>
    </g>
   </g>
   <g>
    <g>
     <path class="fil0" d="M4539 5802c-258,-376 -295,-916 -91,-1343l97 -205c132,-278 64,-639 -153,-808 -217,-169 -500,-81 -632,196l-98 205c-413,868 -339,1966 185,2730 229,335 285,814 142,1220l-255 723c-105,296 -2,645 229,778 62,36 126,53 189,53 175,0 343,-129 420,-347l255 -723c291,-825 178,-1798 -288,-2479z"/>
    </g>
   </g>
   <g>
    <g>
     <path class="fil0" d="M6607 5802c-257,-376 -294,-916 -91,-1343l98 -205c132,-278 63,-639 -154,-808 -217,-169 -499,-81 -631,196l-98 205c-413,868 -339,1966 185,2730 229,335 285,814 142,1220l-256 723c-104,296 -1,645 230,778 61,36 126,53 189,53 175,0 342,-129 419,-347l256 -723c291,-825 178,-1798 -289,-2479z"/>
    </g>
   </g>
   <g>
   </g>
   <g>
   </g>
   <g>
   </g>
   <g>
   </g>
   <g>
   </g>
   <g>
   </g>
   <g>
   </g>
   <g>
   </g>
   <g>
   </g>
   <g>
   </g>
   <g>
   </g>
   <g>
   </g>
   <g>
   </g>
   <g>
   </g>
   <g>
   </g>
  </g>
  <g id="_788638848">
   <path class="fil0" d="M8075 9859l-807 0 -1106 0 -688 0 -2355 0 -689 0 0 0 -1032 0 -807 0c-129,0 -233,235 -233,525l0 0c0,290 104,525 233,525l807 0 0 0 466 0 1075 0 2715 0 1148 0 466 0 0 0 807 0c128,0 233,-235 233,-525l0 0c0,-290 -105,-525 -233,-525z"/>
   <g>
   </g>
   <g>
   </g>
   <g>
   </g>
   <g>
   </g>
   <g>
   </g>
   <g>
   </g>
   <g>
   </g>
   <g>
   </g>
   <g>
   </g>
   <g>
   </g>
   <g>
   </g>
   <g>
   </g>
   <g>
   </g>
   <g>
   </g>
   <g>
   </g>
  </g>
 </g>
</svg>
