<?xml version="1.0" encoding="UTF-8"?>
<!DOCTYPE svg PUBLIC "-//W3C//DTD SVG 1.1//EN" "http://www.w3.org/Graphics/SVG/1.1/DTD/svg11.dtd">
<!-- Creator: CorelDRAW X7 -->
<svg xmlns="http://www.w3.org/2000/svg" xml:space="preserve" width="8.5in" height="11in" version="1.1" style="shape-rendering:geometricPrecision; text-rendering:geometricPrecision; image-rendering:optimizeQuality; fill-rule:evenodd; clip-rule:evenodd"
viewBox="0 0 8500 11000"
 xmlns:xlink="http://www.w3.org/1999/xlink">
 <defs>
  <style type="text/css">
   <![CDATA[
    .fil0 {fill:black}
   ]]>
  </style>
 </defs>
 <g id="Layer_x0020_1">
  <metadata id="CorelCorpID_0Corel-Layer"/>
  <g id="_794331616">
   <g>
    <g>
     <path class="fil0" d="M4287 1444c-2273,0 -4118,1769 -4118,3961 0,2191 1845,3959 4118,3959 2273,0 4117,-1769 4117,-3961 0,-2192 -1844,-3959 -4117,-3959zm226 420c779,0 1410,338 1410,751 0,330 -600,420 -1335,1507 -99,-24 -650,-107 -1102,239 -202,-683 -382,-1530 -382,-1748 -2,-419 627,-749 1409,-749zm478 3539c0,389 -314,704 -704,704 -390,0 -704,-315 -704,-704 0,-390 314,-705 704,-705 390,0 704,315 704,705zm-4245 -232c0,-779 338,-1410 751,-1410 330,0 421,600 1507,1335 -23,98 -97,642 239,1102 -683,202 -1530,382 -1748,382 -411,9 -749,-629 -749,-1409zm3315 3772c-779,0 -1410,-337 -1410,-750 0,-330 600,-421 1335,-1507 444,94 878,-68 1102,-239 202,683 382,1530 382,1748 2,411 -627,748 -1409,748zm3016 -1904c-330,0 -421,-600 -1507,-1335 23,-99 164,-679 -239,-1102 683,-203 1530,-382 1748,-382 413,0 750,631 750,1410 0,780 -339,1409 -752,1409z"/>
     <path class="fil0" d="M5637 9551c-428,127 -877,203 -1350,203 -473,0 -922,-68 -1351,-203l-345 1028c-52,159 60,315 226,315l2932 0c166,0 278,-158 226,-315l-338 -1028zm-1020 961l-660 0c-104,0 -187,-83 -187,-187 0,-105 83,-187 187,-187l660 0c104,0 187,82 187,187 0,104 -83,187 -187,187z"/>
    </g>
   </g>
  </g>
  <g id="_794330304">
  </g>
  <g id="_794338144">
  </g>
  <g id="_794340192">
  </g>
  <g id="_794339648">
  </g>
  <g id="_794334240">
  </g>
  <g id="_794340832">
  </g>
  <g id="_794334592">
  </g>
  <g id="_794333920">
  </g>
  <g id="_794328416">
  </g>
  <g id="_794330496">
  </g>
  <g id="_794328832">
  </g>
  <g id="_794317952">
  </g>
  <g id="_794330912">
  </g>
  <g id="_794336672">
  </g>
  <g id="_794335072">
  </g>
 </g>
</svg>
